<?xml version="1.0" ?><svg id="outline" viewBox="0 0 340 340" xmlns="http://www.w3.org/2000/svg"><title/><path d="M155.985,157.94a14.691,14.691,0,0,0-7.76-12.966l-1.3-.7a14.618,14.618,0,0,0-15.462.958,39.734,39.734,0,0,0-10.35,11.226,14.661,14.661,0,0,0-2.2,9.023l.283,3.471a14.641,14.641,0,0,0,13.327,13.467c1.329.116,2.752.173,4.261.173,1.777,0,3.674-.08,5.675-.24a14.79,14.79,0,0,0,13.535-14.668Zm-6.924,9.744a7.83,7.83,0,0,1-7.164,7.766,53.566,53.566,0,0,1-8.782.071,7.737,7.737,0,0,1-7.028-7.13l-.283-3.472a7.79,7.79,0,0,1,1.174-4.789,32.8,32.8,0,0,1,8.488-9.253,7.838,7.838,0,0,1,8.182-.5l1.3.7a7.778,7.778,0,0,1,4.109,6.865Z"/><path d="M171.193,187.153a8.032,8.032,0,0,0-5.894-2.375,7.884,7.884,0,0,0-5.719,2.61A35.058,35.058,0,0,0,153.6,196.3a8.013,8.013,0,0,0,6.06,11.239,39.618,39.618,0,0,0,11.977.045,8.018,8.018,0,0,0,5.935-11.612A35.888,35.888,0,0,0,171.193,187.153Zm.234,13a1.064,1.064,0,0,1-.808.582,32.716,32.716,0,0,1-9.888-.037,1.079,1.079,0,0,1-.8-.566,1.059,1.059,0,0,1-.034-.957,28.879,28.879,0,0,1,4.81-7.144,1.023,1.023,0,0,1,.748-.336,1.109,1.109,0,0,1,.823.332,28.948,28.948,0,0,1,5.144,7.125A1.07,1.07,0,0,1,171.427,200.158Z"/><path d="M111.1,65.308a3.465,3.465,0,0,0-2.411,1.177,101.191,101.191,0,0,0-9.792,13.258,46.088,46.088,0,0,1-26.7,20.3l-3.891,1.09A31.966,31.966,0,0,0,46.368,121.66a25.931,25.931,0,0,0-1.057,13.059,3.462,3.462,0,0,0,3.4,2.824H98.887c.091,8.634.737,23.016,3.621,36.452a20.958,20.958,0,0,0,7.793,12.237c4.47,3.412,10.744,8.294,15.247,12.176a14.282,14.282,0,0,1,4.835,8.937l2.128,15.88a11.047,11.047,0,0,0,8.8,9.365c2.124.421,4.366.8,6.662,1.131a3.462,3.462,0,0,0,3.954-3.426V223.7a2.173,2.173,0,0,1,4.345,0v7.736a3.463,3.463,0,0,0,3.251,3.455c2.89.176,5.8.265,8.691.265q2.31,0,4.6-.076a3.462,3.462,0,0,0,3.348-3.459V223.7a2.172,2.172,0,0,1,4.344,0v7.063a3.462,3.462,0,0,0,3.875,3.437c3.16-.38,6.282-.873,9.279-1.464a11.07,11.07,0,0,0,8.907-10.838V209.945a14.394,14.394,0,0,1,4.624-10.54,122.441,122.441,0,0,1,13.2-10.684A20.767,20.767,0,0,0,229.342,173c.46-6.324,1.059-15.907,1.295-25.644a3.462,3.462,0,0,0-6.921-.167c-.1,4.108-.265,8.19-.458,12.007l-31.83-21.656H279.3a3.461,3.461,0,0,0,3.4-2.824,25.936,25.936,0,0,0-1.058-13.063A31.251,31.251,0,0,0,270.638,106.5a47.817,47.817,0,0,0,16.839-12.185,3.463,3.463,0,0,0-.828-5.14,61.431,61.431,0,0,0-13.159-6.254c11.539-10.174,16.462-24.975,14.274-43.214a92.436,92.436,0,0,0-8.217-27.961,3.462,3.462,0,0,0-6.521,1.138C273,13.08,270.437,32.34,258.7,38.152a61.444,61.444,0,0,0-15.454,10.836l-.257-2.825a3.46,3.46,0,0,0-5.074-2.742c-10.786,5.746-16.14,14.78-18.786,22.877a95.323,95.323,0,0,0-15.953-14.51,67.039,67.039,0,0,0-78.264-.056l-.13.092a14.23,14.23,0,0,0-5.8,12.422l.481,7.292-5.843-5.331A3.462,3.462,0,0,0,111.1,65.308ZM216.471,183.014a129.461,129.461,0,0,0-13.976,11.3,21.338,21.338,0,0,0-6.85,15.626V221.9a4.132,4.132,0,0,1-3.323,4.046c-1.6.315-3.231.6-4.89.854v-3.1a9.1,9.1,0,1,0-18.192,0v4.528c-2,.013-4.026-.014-6.042-.088V223.7a9.1,9.1,0,1,0-18.192,0v2.533c-.8-.14-1.581-.287-2.347-.439a4.121,4.121,0,0,1-3.286-3.493l-2.128-15.879a21.2,21.2,0,0,0-7.177-13.262c-4.631-3.993-11.021-8.966-15.567-12.436a14.036,14.036,0,0,1-5.224-8.186c-2.753-12.825-3.376-26.65-3.466-35h50.468l2.842,2.4a11.009,11.009,0,0,1,3.794,9.562c-1.451,14.079,3.969,24.672,15.26,29.829a32.849,32.849,0,0,0,13.678,3.269,23.6,23.6,0,0,0,13.334-4.033,10.768,10.768,0,0,1,10.63-.979l4.142,1.937A13.7,13.7,0,0,1,216.471,183.014Zm6.325-15.756c-.124,1.916-.246,3.68-.36,5.242-.013.174-.048.342-.066.514l-3.621-1.693a17.637,17.637,0,0,0-17.423,1.5c-5.572,3.742-12.394,3.813-20.275.214-10.736-4.9-12.044-15.117-11.25-22.821a18,18,0,0,0-3.5-12.675h12.816ZM236.613,52.481l.472,5.2a3.462,3.462,0,0,0,6.348,1.577c.056-.086,5.745-8.666,18.343-14.906,8.331-4.127,12.951-12.745,15.438-19.793,4.725,14.366,9.646,41.235-12.242,56.212a61.91,61.91,0,0,0-16.066-.66,3.461,3.461,0,0,0,.6,6.9,52.943,52.943,0,0,1,29.681,5.853c-3.3,2.966-9.157,7.316-16.535,8.965a3.449,3.449,0,0,0-.406.135c-.83-.305-1.671-.591-2.534-.832l-3.749-1.05a46.023,46.023,0,0,1-23.076-15.1c1.955-2.9,7.023-8.775,17.683-12.291,17.451-5.755,22.161-17.468,22.352-17.963a3.462,3.462,0,0,0-6.445-2.528c-.153.375-3.911,9.246-18.075,13.917-10.425,3.438-16.487,8.975-19.717,12.958q-1.99-3.156-4.182-6.114C225.863,66.482,229.084,58.337,236.613,52.481ZM121.155,82.449a3.462,3.462,0,0,0,5.788-2.785L125.9,63.79a7.287,7.287,0,0,1,2.978-6.38,60.157,60.157,0,0,1,70.266,0,90.384,90.384,0,0,1,24.074,25.947A53.273,53.273,0,0,0,254.1,106.751l3.749,1.049a25.054,25.054,0,0,1,17.229,16.038,20.44,20.44,0,0,1,1.107,6.782H51.832a20.466,20.466,0,0,1,1.1-6.779A25.061,25.061,0,0,1,70.172,107.8l3.891-1.09a53,53,0,0,0,30.715-23.317,94.725,94.725,0,0,1,6.843-9.642Z"/><path d="M143.4,99.056l9.36,9.36a3.463,3.463,0,0,0,4.9,0l5.074-5.074,5.074,5.074a3.463,3.463,0,0,0,4.895,0l9.36-9.36a3.46,3.46,0,0,0,0-4.9l-5.072-5.074,5.072-5.073a3.46,3.46,0,0,0,0-4.9l-9.36-9.36a3.562,3.562,0,0,0-4.895,0l-5.074,5.074-5.074-5.074a3.461,3.461,0,0,0-4.9,0l-9.36,9.36a3.462,3.462,0,0,0,0,4.9l5.074,5.073L143.4,94.16A3.462,3.462,0,0,0,143.4,99.056Zm12.416-12.418-5.072-5.073L155.21,77.1l5.074,5.074a3.561,3.561,0,0,0,4.9,0l5.073-5.074,4.465,4.465-5.073,5.073a3.462,3.462,0,0,0,0,4.9l5.073,5.074-4.465,4.464L165.179,96a3.461,3.461,0,0,0-4.9,0l-5.074,5.073-4.464-4.464,5.072-5.074A3.46,3.46,0,0,0,155.818,86.638Z"/><path d="M268.653,251.3c3.425-.051,7.111-.03,10.961.062a15.1,15.1,0,0,0,15.468-14.977,33.891,33.891,0,0,0-.286-4.541,15.281,15.281,0,0,0-8.113-11.6,14.9,14.9,0,0,0-7.912-1.677,20.528,20.528,0,0,0-.139-4.908,17.207,17.207,0,0,0-11.886-13.879,18.589,18.589,0,0,0-10.2-.159,17.507,17.507,0,0,0-11.833,10.705c-.465,1.195-1.021,2.43-1.653,3.671a43.656,43.656,0,0,1-17.1,17.755c-13.012,7.591-30.572,15.642-52.192,23.927a3.429,3.429,0,0,0-.445.224c-18.712-7.148-37.956-15.469-52.838-24.151a43.652,43.652,0,0,1-17.1-17.756c-.627-1.231-1.183-2.467-1.653-3.67a17.5,17.5,0,0,0-11.833-10.705,18.6,18.6,0,0,0-10.2.159,17.207,17.207,0,0,0-11.886,13.878,20.587,20.587,0,0,0-.14,4.909,14.93,14.93,0,0,0-7.911,1.677,15.281,15.281,0,0,0-8.113,11.6,33.841,33.841,0,0,0-.286,4.539A15.1,15.1,0,0,0,66.841,251.36c3.852-.092,7.542-.113,10.96-.062a78.89,78.89,0,0,1,29.682,6.287c6.656,2.814,16.391,6.9,27.888,11.625-6.624,2.16-13.3,4.258-19.935,6.259a30.448,30.448,0,0,1-20.844-1.119c-18.306-7.911-29.661-4.316-35.965.094a16.372,16.372,0,0,0-6.156,19.426c2.959,7.448,10.081,10.214,15.558,11.222a19.394,19.394,0,0,0-1.695,5.863,16.823,16.823,0,0,0,5.233,14.719,17.3,17.3,0,0,0,11.952,4.468,23.892,23.892,0,0,0,4.7-.486,16.4,16.4,0,0,0,10.9-7.949,51.608,51.608,0,0,1,4.527-6.567A32,32,0,0,1,118.1,305.077c11.623-4.025,25.135-9,40.16-14.778a3.462,3.462,0,0,0-2.486-6.462c-14.953,5.754-28.39,10.7-39.939,14.7a38.911,38.911,0,0,0-17.579,12.252,58.316,58.316,0,0,0-5.136,7.452,9.48,9.48,0,0,1-6.265,4.63c-4.4.879-7.973.1-10.633-2.316a9.9,9.9,0,0,1-3.029-8.679,9.666,9.666,0,0,1,2.981-6.31,6.45,6.45,0,0,1,4.466,1.746l.112.1a3.462,3.462,0,0,0,4.729-5.057l-.106-.1a13.352,13.352,0,0,0-10.371-3.568l-.309.028c-.76.028-12.717.339-15.792-7.4a9.6,9.6,0,0,1,3.691-11.2c4.858-3.4,13.878-6.057,29.248.588a37.373,37.373,0,0,0,25.59,1.392c9.269-2.794,18.616-5.773,27.793-8.853,25.431,10.355,56.858,22.739,83.125,31.833a32.01,32.01,0,0,1,14.462,10.063,51.729,51.729,0,0,1,4.527,6.567,16.393,16.393,0,0,0,10.9,7.949,23.884,23.884,0,0,0,4.7.486,17.3,17.3,0,0,0,11.952-4.468,16.834,16.834,0,0,0,5.234-14.718,19.364,19.364,0,0,0-1.7-5.864c5.478-1.009,12.6-3.775,15.558-11.222a16.371,16.371,0,0,0-6.156-19.426c-6.3-4.41-17.661-8.008-35.964-.094a30.442,30.442,0,0,1-20.846,1.119c-5.107-1.54-11.98-3.669-19.921-6.261,11.47-4.718,21.258-8.826,27.874-11.623A78.906,78.906,0,0,1,268.653,251.3Zm-14.042,29.407c15.373-6.646,24.39-3.988,29.248-.588a9.6,9.6,0,0,1,3.69,11.2c-3.08,7.754-15.066,7.432-15.787,7.4l-.311-.028a13.368,13.368,0,0,0-10.379,3.573l-.111.105a3.462,3.462,0,0,0,4.752,5.036l.106-.1a6.426,6.426,0,0,1,4.458-1.74,9.667,9.667,0,0,1,2.983,6.31,9.913,9.913,0,0,1-3.03,8.679c-2.66,2.417-6.239,3.195-10.633,2.316a9.474,9.474,0,0,1-6.264-4.63,58.479,58.479,0,0,0-5.136-7.453,38.916,38.916,0,0,0-17.579-12.25c-42.367-14.67-98.34-37.984-120.438-47.327A85.813,85.813,0,0,0,77.9,244.375q-1.867-.029-3.831-.028c-2.379,0-4.855.031-7.4.092a8.164,8.164,0,0,1-5.9-2.314,8.073,8.073,0,0,1-2.474-5.784,27.107,27.107,0,0,1,.228-3.609,8.245,8.245,0,0,1,4.434-6.344,7.957,7.957,0,0,1,7.463.012c.072.038.125.067.167.091a11.4,11.4,0,0,0,7.419,2.461,25.478,25.478,0,0,0,7.959-2.142,3.462,3.462,0,0,0-2.429-6.484s-5.175,2.836-8.231,1a14.139,14.139,0,0,1-.634-6.649,10.245,10.245,0,0,1,7.067-8.277,11.764,11.764,0,0,1,6.45-.071,10.569,10.569,0,0,1,7.1,6.509c.554,1.419,1.2,2.867,1.936,4.3A50.552,50.552,0,0,0,117,237.729c32.7,19.074,84.217,35.985,112.018,44.368A37.391,37.391,0,0,0,254.611,280.705Zm-53.324-14.958c-.081.033-.15.082-.227.121-5.737-1.946-11.819-4.075-18.069-6.358,18.907-7.5,34.521-14.814,46.463-21.781a50.563,50.563,0,0,0,19.778-20.594c.736-1.447,1.387-2.894,1.935-4.3a10.572,10.572,0,0,1,7.1-6.508,11.761,11.761,0,0,1,6.449.071,10.248,10.248,0,0,1,7.068,8.277,14.145,14.145,0,0,1-.636,6.65c-1.386.781-8.23-1-8.23-1a3.462,3.462,0,0,0-2.428,6.484s6.5,2.142,7.957,2.142a12.422,12.422,0,0,0,7.418-2.461c.042-.023.095-.052.166-.089a7.949,7.949,0,0,1,7.465-.014,8.249,8.249,0,0,1,4.435,6.343,27.3,27.3,0,0,1,.228,3.61,8.073,8.073,0,0,1-2.474,5.784,8.156,8.156,0,0,1-5.905,2.314c-3.941-.094-7.72-.117-11.231-.064a85.823,85.823,0,0,0-32.274,6.833C228.33,254.567,215.811,259.816,201.287,265.747Z"/></svg>